<svg width="343" height="502" viewBox="0 0 343 502" fill="none" xmlns="http://www.w3.org/2000/svg">
<path fill-rule="evenodd" clip-rule="evenodd" d="M298.269 296.607C292.499 269.271 272.035 248.058 244.513 237.491C239.223 234.499 234.095 221.66 226.985 219.309C225.845 218.932 227.644 221.931 226.985 222.11C224.634 222.749 221.999 222.816 219.403 220.509C214.763 216.385 213.307 204.337 210.486 198.891C195.608 170.173 158.461 181.41 153.485 213.157C150.015 215.419 145.109 217.411 141.332 219.234C137.443 221.111 134.021 225.656 130.013 227.282C126.437 228.732 120.544 227.704 116.94 228.968C100.365 234.783 86.326 242.119 75.32 256.984C73.001 260.119 70.386 263.974 68.276 267.141C57.396 279.666 49.838 293.705 42.878 308.766C23.405 352.975 18.108 401.924 13.356 449.557C13.464 457.891 7.93401 481.001 16.113 484.996C15.624 485.503 15.801 486.521 16.708 486.512C37.448 486.303 58.14 488.159 78.558 491.767C88.41 493.509 98.208 495.896 108.243 496.289C129.074 496.145 149.83 492.654 170.633 495.957C195.642 495.957 226.035 495.229 253.857 494.159C279.859 493.16 306.001 495.417 331.681 490.995C333.714 490.674 334.707 488.194 334.281 486.418C331.268 475.439 329.789 464.14 328.098 452.904C328.435 445.696 327.832 438.172 325.166 431.459C318.2 386.142 309.267 341.12 298.269 296.607Z" fill="#FFDBB4"/>
<path fill-rule="evenodd" clip-rule="evenodd" d="M226.985 222.277C227.644 222.097 225.845 219.098 226.985 219.475C234.095 221.826 239.223 234.665 244.513 237.657C272.035 248.224 292.499 269.437 298.269 296.773C309.267 341.286 318.2 386.308 325.166 431.626C327.832 438.339 328.435 445.863 328.098 453.07L328.364 454.844C329.949 465.495 331.426 476.183 334.281 486.584C334.707 488.361 333.714 490.84 331.681 491.161C306.293 495.533 280.453 493.376 254.743 494.292L249.385 494.493C222.808 495.47 194.308 496.124 170.633 496.124C149.83 492.82 129.074 496.311 108.243 496.455C98.208 496.062 88.41 493.675 78.558 491.933C58.14 488.325 37.448 486.469 16.708 486.678C15.801 486.687 15.624 485.669 16.113 485.162C7.93401 481.167 13.464 458.057 13.356 449.723L13.785 445.432C18.439 399.158 23.989 351.815 42.878 308.932L43.444 307.713C50.249 293.113 57.69 279.494 68.276 267.307L68.923 266.338C70.906 263.376 73.233 259.972 75.32 257.15C86.326 242.286 100.365 234.949 116.94 229.135C120.544 227.87 126.437 228.898 130.013 227.448C133.762 225.928 136.997 221.853 140.583 219.796V235.135L192.461 286.24L221.885 241.122L224.878 222.644C225.599 222.599 226.304 222.462 226.985 222.277Z" fill="#8FA7DF"/>
<path fill-rule="evenodd" clip-rule="evenodd" d="M289.877 356.174C289.329 358.839 288.56 361.503 287.537 364.027C286.552 366.463 285.068 368.645 284.046 371.052C283.908 371.376 283.684 371.621 283.413 371.808L283.498 372.463L283.575 373.118C284.085 377.536 284.659 381.942 285.155 386.359L285.397 388.569C286.373 397.793 287.915 406.972 289.112 416.171C290.285 425.179 291.478 434.187 292.754 443.182C294.072 452.456 295.414 461.718 296.981 470.954C297.643 474.855 298.334 478.753 299.053 482.648L299.609 485.628C305.328 487.004 306.891 494.977 301.068 497.92C298.424 499.25 295.028 498.93 292.849 496.84C290.585 494.661 290.492 490.732 289.966 487.781L289.46 485.039C285.672 464.419 282.385 443.562 280.848 422.651C280.454 417.252 280.121 411.848 279.905 406.439C279.699 401.352 279.798 396.266 279.719 391.179L279.693 389.791C279.573 384.366 279.672 378.95 279.813 373.525C279.83 372.864 279.859 372.203 279.892 371.538C279.702 371.314 279.564 371.048 279.506 370.79L279.431 370.449C279.244 369.572 279.456 368.545 280.13 367.917C280.42 364.222 280.803 360.531 280.907 356.839C280.915 356.536 281.351 356.545 281.377 356.839C281.622 359.982 282.112 363.133 282.603 366.28C285.758 363.744 288.09 359.562 289.466 356.062C289.565 355.808 289.936 355.9 289.877 356.174ZM215.228 209.261C215.751 211.655 216.787 213.805 218.175 215.804C218.836 216.76 219.588 217.65 220.49 218.394C221.264 219.03 222.145 219.445 222.968 219.999C224.165 219.811 225.416 220.265 226.256 221.146L226.123 219.857C226.081 219.442 226.772 219.359 226.851 219.761C230.488 238.102 233.804 256.455 236.675 274.929L237.934 283.087L239.118 290.746C241.084 303.508 242.986 316.265 244.418 329.121C246.326 346.277 247.93 363.478 249.102 380.704C250.279 398.051 251.002 415.41 251.518 432.79C251.646 437.172 251.784 441.549 251.916 445.93L252.804 440.692C253.69 435.453 254.559 430.209 255.304 424.946C257.977 406.111 260.114 387.143 261.157 368.146C262.114 350.762 261.794 333.033 257.371 316.097C256.256 311.837 254.893 307.642 253.247 303.556C251.65 299.582 249.473 295.899 247.755 291.984C245.76 287.428 245.161 283.129 246.189 278.224C247.086 273.951 248.662 269.931 248.944 265.533C249.473 257.369 246.816 249.462 243.063 242.317C242.073 240.434 241.03 238.576 239.94 236.734C236.644 231.168 232.928 225.805 229.071 220.664C228.863 220.389 229.303 220.086 229.528 220.31C233.044 223.786 236.889 227.203 240.053 230.998C241.591 232.843 243.091 234.726 244.513 236.66C260.11 239.266 273.512 248.98 282.673 261.809C293.07 276.366 298.328 293.888 302.219 311.142C306.547 330.319 310.196 349.669 314.083 368.94C318.107 388.881 322.11 408.822 326.159 428.758C328.17 438.655 330.183 448.553 332.19 458.455C333.209 463.468 334.277 468.469 335.395 473.465C335.969 476.026 336.584 478.583 337.117 481.152C337.715 484.049 337.158 485.902 335.196 488.031C334.472 488.821 333.329 488.808 332.431 488.389L332.151 488.256L331.879 488.125C330.768 487.579 329.897 487.014 329.206 485.798C328.445 484.465 328.324 482.985 328.063 481.501C327.58 478.769 327.103 476.038 326.62 473.303C325.9 469.213 325.116 465.134 324.319 461.057L320.319 440.678C319.252 435.245 318.184 429.812 317.109 424.381C313.272 404.96 309.431 385.543 305.591 366.126C301.903 347.482 298.64 328.71 294.442 310.174L294.203 309.13L293.96 308.087C290.206 292.107 284.962 276.65 275.444 263.11C268.12 252.697 257.948 243.398 245.968 238.692C246.812 239.906 247.623 241.145 248.396 242.409C253.251 250.34 256.797 259.755 255.965 269.2C255.558 273.814 253.804 278.349 253.97 283.001C254.124 287.133 256.681 290.762 258.447 294.357C262.458 302.505 265.36 311.164 267.231 320.046C270.984 337.884 270.972 356.237 269.679 374.344C268.274 394.027 265.605 413.706 262.567 433.197C261.008 443.194 258.934 453.109 257.345 463.09C256.56 468.011 255.491 472.921 254.556 477.818L254.11 480.157C253.861 481.456 253.602 482.75 253.303 484.03L253.118 484.797V484.934C253.11 485.878 252.852 486.659 252.436 487.283C251.867 489.107 251.16 490.887 250.221 492.595C249.739 493.468 249.04 493.958 248.279 494.138C247.514 495.888 245.781 497.234 243.711 497.226L216.487 497.122C200.674 497.06 184.862 496.956 169.049 496.868C165.059 496.848 161.072 496.773 157.086 496.669C153.349 496.565 149.765 496.116 146.07 495.651C141.896 495.127 139.635 492.171 140.259 488.002C140.396 487.083 140.545 486.169 140.687 485.254C139.855 485.529 138.866 485.4 138.197 484.747L137.569 484.133C136.699 483.273 135.922 482.428 135.37 481.28C134.801 480.1 134.339 478.853 133.836 477.647C132.751 475.053 131.695 472.451 130.668 469.836C128.611 464.607 126.553 459.357 124.641 454.073C120.854 443.61 117.503 432.989 114.59 422.248C109.394 403.085 105.635 383.552 103.266 363.844L102.699 359.147L102.535 357.759C101.636 350.121 100.88 342.364 101.237 334.741C101.458 329.969 102.198 325.16 103.981 320.703C105.627 316.592 108.167 313.076 110.582 309.401L110.858 308.977L111.136 308.542C113.248 305.205 114.929 301.715 115.013 297.662C115.099 293.549 113.9 289.546 112.56 285.695L112.226 284.745L112.002 284.116C109.152 276.158 105.908 268.312 106.978 259.651C108.558 246.898 116.289 236.618 126.017 228.691C117.366 230.403 108.803 233.787 101.246 238.077C92.321 243.148 84.286 249.841 77.356 257.394C64.262 271.668 54.913 288.795 47.26 306.479C39.25 324.985 33.31 344.377 28.833 364.023C24.331 383.78 21.317 403.854 19.259 424.007C18.233 434.037 17.426 444.092 16.757 454.152C16.416 459.307 16.159 464.47 15.76 469.616C15.36 474.758 15.181 479.979 13.926 484.984C13.34 487.316 9.38701 487.553 8.96301 484.984C8.02301 479.247 8.286 473.314 8.548 467.504L8.57199 466.976C8.82999 461.19 9.167 455.408 9.565 449.626C10.38 437.808 11.469 426.006 12.891 414.242C17.875 372.947 27.066 331.869 45.095 294.174C53.583 276.42 64.478 259.169 79.634 246.349C86.85 240.251 94.985 235.383 103.752 231.858C111.593 228.703 119.557 227.211 127.888 227.215C132.065 224.014 136.551 221.225 141.031 218.843C141.301 218.698 141.584 219.047 141.36 219.271C141.244 219.383 141.131 219.499 141.015 219.608C141.522 219.641 142.046 219.878 142.515 220.373C144.162 222.098 145.55 224.255 146.793 226.495C148.684 228.857 150.488 231.297 152.376 233.633C155.398 237.374 158.49 241.061 161.621 244.719C166.878 250.867 172.307 256.898 177.968 262.687L178.913 263.65C181.848 266.622 184.82 270.18 188.291 272.533L188.476 272.656C189.941 273.61 190.979 273.784 192.228 272.359C193.363 271.062 194.308 269.557 195.279 268.127L195.504 267.799C200.463 260.595 205.06 253.125 209.221 245.435C211.118 241.935 212.922 238.384 214.634 234.795L215.145 233.716C216.076 231.738 217.086 229.796 217.855 227.759C218.034 227.282 218.208 226.804 218.379 226.33C215.76 224.613 213.732 220.897 212.996 217.987C212.231 214.965 212.618 211.863 213.981 209.099C214.238 208.58 215.103 208.708 215.228 209.261ZM86.036 332.068C85.674 343.558 85.454 355.06 84.913 366.542L84.727 370.461C85.57 371.401 86.065 372.486 85.67 373.974C85.516 374.544 85.063 375.059 84.498 375.251L84.321 378.895C83.519 395.292 82.579 411.654 80.86 428.01C78.711 448.478 76.225 468.913 73.744 489.345C73.391 492.238 71.378 494.532 68.248 494.109C65.081 493.68 63.797 490.924 64.212 488.052C65.846 476.783 67.417 465.505 68.793 454.198L70.36 441.317C72.325 425.214 74.337 409.114 76.654 393.062C77.622 386.354 78.628 379.648 79.638 372.943L79.285 372.486C77.842 370.611 76.35 368.778 74.874 366.933C72.04 363.374 69.242 359.845 66.644 356.12C66.515 355.933 66.777 355.659 66.964 355.8C70.605 358.49 74.052 361.366 77.519 364.289L80.553 366.857C82.299 355.272 84.028 343.683 85.57 332.068C85.608 331.778 86.044 331.756 86.036 332.068ZM138.417 222.11C136.226 224.176 133.986 226.197 131.778 228.25L130.969 229.006L130.164 229.765C126.285 233.444 122.567 237.274 119.47 241.673C113.783 249.75 110.395 259.597 112.76 269.457C114.723 277.625 119.225 285.029 120.434 293.401C121.041 297.595 120.746 301.811 119.166 305.772C117.553 309.813 114.976 313.275 112.66 316.921C107.631 324.844 106.945 333.54 107.444 342.719C107.968 352.304 109.069 361.894 110.429 371.393C113.18 390.639 117.329 409.686 122.82 428.338C125.568 437.679 128.814 446.82 132.044 455.998C133.653 460.567 135.528 465.027 137.461 469.466C138.479 471.803 139.523 474.126 140.583 476.445C140.192 473.17 140.192 469.807 140 466.552C139.726 461.888 139.377 457.233 139.057 452.573C138.405 443.116 137.823 433.651 137.303 424.185C135.461 390.431 134.106 356.648 134.206 322.84C134.256 305.934 134.601 289.028 135.328 272.138C135.669 264.185 136.33 256.239 136.927 248.296L137.054 246.595C137.581 239.465 138.213 232.32 139.298 225.253C138.977 224.528 138.698 223.795 138.491 223.042L138.417 222.759L138.471 222.767C138.421 222.546 138.405 222.327 138.417 222.11ZM157.364 193.062C157.41 192.867 157.688 192.883 157.738 193.062C158.973 197.219 158.536 201.791 157.472 205.973C156.899 208.239 156.084 210.438 155.099 212.558L154.754 213.3C153.91 215.105 152.959 216.965 151.316 218.091C150.63 218.56 149.403 218.589 148.717 218.091L148.368 217.825C148.31 217.78 148.253 217.734 148.198 217.687C147.558 217.151 147.242 215.966 147.537 215.185C148.298 213.169 150.023 211.689 151.216 209.893C152.272 208.297 153.207 206.613 153.984 204.863C155.659 201.076 156.412 197.057 157.364 193.062Z" fill="black"/>
<path fill-rule="evenodd" clip-rule="evenodd" d="M186.438 42.3835C209.992 42.3835 234.354 60.6789 242.987 72.3536C252.971 85.8531 260.846 150.658 257.151 172.647C253.457 194.637 235.106 218.604 203.249 218.604C171.392 218.604 152.005 214.672 151.227 208.961C150.709 205.153 143.705 192.652 130.216 171.457C116.419 167.569 109.493 160.98 109.439 151.691C109.386 142.402 113.082 136.068 120.529 132.688C117.874 96.03 119.89 72.929 126.577 63.385C136.608 49.069 162.885 42.3835 186.438 42.3835Z" fill="#FFDBB4"/>
<path fill-rule="evenodd" clip-rule="evenodd" d="M170.557 6.87767C173.725 3.14199 179.312 6.67306 179.186 10.7552C180.45 11.0982 181.942 12.2818 182.518 13.8247C183.763 13.7438 185.018 13.9917 186.148 14.6397L186.386 14.3454C190.304 9.55204 195.489 5.43874 200.839 8.96871C202.295 9.92938 202.947 11.517 202.626 13.2379L202.601 13.3597L202.72 12.8284C202.84 12.3236 202.66 13.3337 202.593 13.5474L202.584 13.5717C202.443 13.9316 202.302 14.1128 202.174 14.3849C207.651 10.4853 215.992 12.768 211.597 20.3167L213.384 19.6183C219.567 17.2237 227.256 14.6524 232.892 18.9576C235.412 21.3865 232.615 24.6252 230.048 25.4103L230.489 25.3363C235.416 24.4979 245.694 22.4258 247.162 28.8527C247.69 31.1652 246.15 32.8552 244.207 33.7857C248.318 33.7705 252.373 34.4497 255.93 36.4603C259.314 38.8701 256.58 42.858 253.041 42.6841C254.138 44.0437 254.502 46.3445 253.443 47.8131C255.454 48.3421 257.309 49.0225 259.019 50.0832L259.489 50.1438C262.907 50.5711 266.807 50.8255 268.687 54.1896C271.455 61.4892 261.6 61.1985 257.37 58.6347C257.621 59.0435 257.808 59.4899 257.912 59.9666L259.283 60.352C264.454 61.7933 270.306 63.3856 273.635 67.7468C275.161 70.2566 273.038 74.5217 269.847 73.7595C278.493 77.8858 275.179 88.7559 266.723 83.1013C266.328 83.4681 265.847 83.7406 265.343 83.8609L267.127 84.8302C271.659 87.3166 277.109 90.7204 276.163 96.3652C275.263 99.3525 271.128 98.8066 269.026 97.6634C272.698 100.828 276.163 104.254 279.311 107.959L280.182 108.997C282.63 111.937 286.889 117.35 282.276 120.178C276.588 123.079 273.754 114.513 270.446 111.456C273.091 117.692 264.493 122.041 261.492 115.76C260.987 115.849 260.481 115.858 259.984 115.791C262.571 118.539 269.569 137.345 260.865 133.221C259.479 131.752 258.262 130.145 257.144 128.459C258.541 139.234 259.563 150.06 260.224 160.893L260.459 164.82C260.7 168.894 260.882 172.984 260.425 177.044C259.898 181.771 258.542 186.206 256.489 190.488C254.597 194.437 252.158 198.095 249.366 201.458C247.873 203.258 246.288 205.008 244.339 206.325C242.787 207.373 240.974 208.063 239.228 208.728C236.387 211.571 232.741 213.721 229.177 215.437C223.304 218.26 216.936 219.819 210.494 220.6C203.907 221.394 197.253 221.203 190.72 220.068C184.477 218.987 177.786 216.223 173.941 210.956C173.609 210.503 174.227 210.075 174.633 210.262C185.792 215.437 198.331 216.788 210.494 215.155C216.168 214.394 221.752 212.823 226.933 210.383C231.305 208.325 234.993 205.332 238.917 202.622C239.68 201.603 240.452 200.601 241.331 199.67L242.704 198.228C243.73 197.144 244.737 196.046 245.653 194.861C248.483 191.207 250.826 187.062 252.374 182.702C255.383 174.214 254.569 165 254.037 156.154L253.991 155.374C253.444 145.913 252.552 136.485 251.316 127.091C250.802 123.181 250.23 119.278 249.604 115.384C248.6 113.747 247.528 112.164 246.328 110.681C247.305 114.483 243.923 119.769 239.777 117.26C235.03 113.193 235.259 106.628 231.28 101.648C227.156 95.263 198.696 82.8457 190.235 81.102C191.598 83.0892 194.088 84.4734 194.669 86.8188C205.075 96.0321 188.113 100.937 182.816 87.8064C182.933 92.1779 183.375 96.5114 184.345 100.778C185.759 104.697 186.868 116.052 179.781 112.625C176.389 113.607 173.802 110.711 173.376 107.444C170.926 114.827 173.243 126.623 168.75 132.064C167.372 133.495 165.242 132.542 164.526 130.908C160.37 129.817 160.725 124.962 160.22 121.487C156.43 135.338 151.686 144.953 151.033 159.402C153.966 163.586 147.533 166.663 144.772 163.31C140.897 157.7 144.47 150.03 145.382 143.888C144.292 143.832 143.213 143.347 142.313 142.288C141.822 144.215 142.104 146.754 142.269 148.845C139.812 158.472 130.47 152.306 130.857 144.496C130.453 146.7 130.148 148.925 129.954 151.167C131.758 153.247 133.095 155.737 133.886 158.38C134.455 160.289 132.518 161.434 131.04 161.157C130.253 163.847 126.841 165.788 124.597 163.217C122.379 160.969 121.994 157.72 121.817 154.486C121.508 154.157 121.32 153.726 121.351 153.204C121.379 152.714 121.499 152.299 121.69 151.949C121.652 151.288 121.605 150.639 121.533 150.012C119.816 155.364 120.933 160.972 121.083 166.454C124.116 168.165 127.578 168.897 131.055 169.619L131.56 169.724C132.633 169.948 132.974 171.553 132.165 172.226C134.318 174.338 136.176 176.857 137.989 179.181C140.396 182.264 142.698 185.469 144.937 188.68L146.252 190.567C150.091 196.047 155.399 203.47 153.022 210.22C152.698 211.147 151.346 211.48 150.819 210.507C149.089 207.306 148.123 203.781 146.48 200.543C144.867 197.367 142.859 194.424 140.868 191.481L139.719 189.776C137.806 186.927 135.912 184.048 134.156 181.114L132.933 179.082C131.784 177.164 130.647 175.182 129.8 173.12C126.785 173.849 123.629 173.326 120.737 172.066L120.7 172.267L120.627 172.63C120.214 174.372 117.815 175.563 116.283 174.423C112.615 171.652 111.122 167.528 110.732 163.118C109.993 161.872 109.367 160.557 108.856 159.195C108.615 161.911 107.569 164.544 104.347 164.463C98.756 164.003 98.207 158.711 99.719 153.448C93.1 155.474 92.324 146.093 94.413 141.15C93.638 140.918 92.919 140.455 92.508 139.831L92.165 140.434C90.893 142.641 89.451 144.784 87.441 145.93C84.633 147.53 80.551 145.548 80.737 142.023C81.339 136.281 86.362 131.906 89.42 127.304C88.876 127.381 88.31 127.361 87.755 127.258C81.642 130.675 78.725 122.633 80.878 117.973C82.455 113.787 85.311 110.188 88.371 107.014L87.474 107.551C85.855 108.507 84.05 109.429 82.27 109.054C70.626 116.722 66.804 103.826 79.87 99.7959L79.866 99.7358C78.555 98.4684 77.986 96.4625 79.005 94.4589C74.212 96.1459 67.37 92.3289 71.594 87.1121C74.35 84.5119 77.601 82.2751 81.205 81.1046C81.025 80.1473 80.967 79.1731 81.042 78.1929L80.826 78.2222C78.551 78.5505 75.746 79.4815 74.343 77.0263C73.631 75.79 73.715 73.7526 74.881 72.7914C78.898 69.4818 83.481 66.729 88.459 65.6129C88.642 65.0056 88.832 64.4017 89.034 63.8009C84.787 63.7217 80.019 58.0693 84.897 54.8666C89.186 52.6769 93.604 51.2685 98.446 51.3991C95.607 48.5939 97.283 43.509 101.058 42.7274C98.586 37.4522 104.693 34.7304 109.249 35.5623C109.082 33.2186 110.334 30.6063 112.743 30.018C111.479 22.6016 119.316 23.3032 124.226 25.0612C122.582 22.2019 124.272 18.8382 127.172 17.8355C131.922 16.758 136.467 21.2922 140.084 24.0728C138.851 21.1719 139.891 18.4974 142.828 17.3415C145.854 16.155 149.114 18.448 151.639 20.0062C153.012 18.2785 155.356 17.7153 157.459 17.8221C157.683 17.1733 158.013 16.6321 158.436 16.2043C158.424 12.2065 165.216 10.0086 167.587 13.7326C167.99 11.1432 169.053 8.65164 170.557 6.87767ZM255.534 79.3881L255.613 79.8185C255.713 79.9076 255.807 80.0015 255.904 80.0928C256.207 80.1646 256.499 80.2403 256.776 80.3177C256.372 79.9903 255.957 79.687 255.534 79.3881ZM260.777 68.8966L260.685 69.0245C260.669 69.0457 260.653 69.0664 260.636 69.0865C260.892 69.1836 261.148 69.2829 261.402 69.3854L261.783 69.5415L261.917 69.6008C261.539 69.3629 261.159 69.1271 260.777 68.8966ZM199.635 16.0802L199.406 16.1371C199.333 16.1549 199.264 16.1714 199.2 16.1866C199.177 16.1926 199.155 16.1952 199.134 16.2039L199.194 16.1909C199.086 16.2735 198.943 16.3708 198.825 16.4487C198.941 16.4392 199.057 16.4279 199.173 16.4215C199.326 16.3073 199.48 16.1935 199.635 16.0802Z" fill="black"/>
<path fill-rule="evenodd" clip-rule="evenodd" d="M221.529 180.431C222.166 179.322 223.634 178.295 224.978 178.453C230.997 179.158 230.986 186.455 228.662 190.715C226.602 194.493 222.337 196.71 218.069 196.386C213.585 196.046 209.764 193.41 208.083 189.215C206.971 186.44 206.457 181.318 209.415 179.453C209.47 179.418 209.56 179.427 209.604 179.477C211.022 181.127 211.078 183.604 212.32 185.441C213.475 187.15 215.269 188.561 217.37 188.778C218.94 188.941 220.528 188.375 221.142 186.966C221.474 186.204 221.436 185.79 221.311 185.265L221.198 184.809C220.805 183.212 220.628 181.997 221.529 180.431ZM223.137 148.429C226.276 150.337 231.059 154.786 227.683 159.517C223.708 163.687 217.985 158.905 215.164 156.742C212.549 155.066 209.611 159.377 212.038 161.334C232.416 176.422 240.686 148.928 224.725 146.186C222.968 145.883 222.315 147.839 223.137 148.429ZM189.989 135.345C191.916 132.455 196.314 132.88 197.375 136.311C197.95 138.169 197.156 139.839 197.197 141.695C197.232 143.262 197.129 145.009 196.649 146.527C195.553 149.989 192.439 152.434 188.756 152.333C185.084 152.232 181.851 149.908 180.313 146.635C178.77 143.35 179.097 139.95 180.223 136.61C180.277 136.449 180.488 136.371 180.615 136.506C181.946 137.922 182.921 139.415 183.93 141L184.963 142.624C185.753 143.847 186.901 145.409 188.376 145.311L188.598 145.29C189.008 145.254 188.945 145.336 189.261 144.777C189.407 144.518 189.381 144.038 189.451 143.733L189.476 143.63L189.462 143.574C189.431 143.426 189.4 143.148 189.375 142.665L189.37 142.558C189.263 140.298 188.624 137.394 189.989 135.345ZM238.829 137.27C238.484 133.573 243.682 132.752 245.41 135.487C246.311 136.914 246.573 138.706 246.773 140.404L246.866 141.21C247.07 142.954 247.151 144.768 246.394 146.394C245.202 148.956 242.61 150.31 239.813 150.096C237.142 149.891 234.705 148.342 233.421 145.991C232.275 143.894 231.137 139.798 232.528 137.611C232.612 137.478 232.78 137.461 232.895 137.563C234.209 138.73 234.423 140.858 235.205 142.379C236.011 143.947 237.233 145.475 239.086 145.713C240.859 145.941 241.536 144.973 241.084 143.283C240.5 141.101 239.049 139.617 238.829 137.27ZM191.393 113.365L192.243 113.04C195.156 111.939 199.154 110.668 201.522 113.036C202.983 114.496 203.261 116.647 202.218 118.429C200.955 120.588 198.689 120.641 196.501 120.959C194.012 121.321 191.481 122.009 189.164 122.989C186.554 124.093 184.131 125.47 181.758 127.008C179.503 128.469 177.255 130.857 174.555 131.307C174.445 131.325 174.32 131.278 174.291 131.157C173.678 128.517 175.382 125.92 176.903 123.86C178.742 121.367 180.972 119.321 183.463 117.486C185.868 115.715 188.616 114.435 191.393 113.365ZM244.297 122.75L244.556 122.704C246.323 122.41 247.923 122.478 249.254 123.877C250.27 124.944 250.661 126.327 250.177 127.738C249.73 129.039 248.731 130.362 247.281 130.634C242.384 131.556 236.961 131.403 232.04 130.706C229.788 130.387 227.517 129.996 225.324 129.38L224.315 129.087C222.484 128.564 220.388 128.018 219.058 126.672C218.58 126.188 218.856 125.495 219.428 125.271C221.748 124.362 224.929 124.846 227.403 124.775C230.281 124.692 233.164 124.477 236.028 124.18C238.828 123.889 241.536 123.256 244.297 122.75Z" fill="black"/>
<path fill-rule="evenodd" clip-rule="evenodd" d="M260.34 150.961C255.293 156.176 246.868 157.672 240.153 154.875C222.912 147.672 231.351 125.204 244.648 119.17C246.309 118.756 248.527 117.774 250.55 117.551C250.733 117.461 251.131 117.721 251.614 117.475C266.276 119.112 269.615 141.872 260.34 150.961ZM204.73 152.296C199.069 159.803 188.546 162.12 179.948 158.629C162.962 151.94 168.986 132.017 180.608 124.206C205.157 114.981 215.295 138.453 204.73 152.296ZM167.908 135.661C167.892 135.653 167.876 135.649 167.86 135.642C167.95 135.602 168.04 135.563 168.129 135.523C168.1 135.599 168.068 135.674 168.04 135.75C167.996 135.72 167.957 135.684 167.908 135.661ZM272.026 127.545C270.64 127.548 268.638 127.776 267.491 128.737C264.661 119.196 254.218 110.365 245.136 116.804C237.985 119.104 232.677 124.205 229.661 130.987C224.223 127.752 215.671 129.133 210.955 133.411C207.867 123.206 200.265 119.632 191.218 119.104C181.343 117.487 171.5 127.077 168.429 134.771C165.875 134.48 162.06 133.668 159.657 135.244C144.066 131.155 116.807 128.901 113.638 131.172C111.379 132.039 110.139 137.371 113.294 137.658C116.044 137.268 112.973 133.752 115.745 133.368C130.511 132.453 144.846 135.427 159.457 136.674C160.761 138.429 164.976 139.016 167.224 138.311C163.683 151.362 171.327 160.241 182.782 162.901C200.518 166.975 215.949 151.109 211.311 134.606C216.684 131.933 222.864 132.048 228.717 133.456C218.936 169.45 276.907 167.835 267.853 129.971C273.879 132.968 275.187 128.15 272.026 127.545Z" fill="black"/>
</svg>
