<svg width="533" height="493" viewBox="0 0 533 493" fill="none" xmlns="http://www.w3.org/2000/svg">
<path d="M111.067 59.4301C61.22 91.4971 15.8174 138.805 4.06987 193.732C-7.99513 248.66 13.5948 311.207 45.6623 368.675C77.73 426.142 120.592 477.895 172.027 489.642C223.462 501.072 283.787 471.862 341.89 446.78C399.992 421.38 456.19 400.107 490.797 357.88C525.087 315.652 537.787 252.152 529.85 189.922C522.23 127.375 493.972 66.0981 447.3 33.3951C400.31 0.692581 334.905 -3.43492 275.215 3.23258C215.207 9.90008 160.915 27.3631 111.067 59.4301Z" fill="url(#paint0_linear_23_3)"/>
<defs>
<linearGradient id="paint0_linear_23_3" x1="33" y1="128.5" x2="761.5" y2="512.5" gradientUnits="userSpaceOnUse">
<stop stop-color="#FBB096"/>
<stop offset="1" stop-color="#D25656"/>
</linearGradient>
</defs>
</svg>
