<svg width="600" height="654" viewBox="0 0 600 654" fill="none" xmlns="http://www.w3.org/2000/svg">
<path d="M475.374 164.494C531.65 200.697 582.909 254.107 596.171 316.118C609.792 378.13 585.418 448.745 549.215 513.625C513.011 578.504 464.62 636.932 406.551 650.194C348.482 663.098 280.377 630.12 214.78 601.803C149.184 573.127 85.7378 549.111 46.6668 501.437C7.95414 453.763 -6.38388 382.073 2.57738 311.816C11.1802 241.202 43.0823 172.022 95.7744 135.101C148.825 98.1806 222.666 93.5208 290.054 101.048C357.802 108.576 419.097 128.291 475.374 164.494Z" fill="#FFDBB4"/>
<path fill-rule="evenodd" clip-rule="evenodd" d="M492.137 490.597C490.183 479.562 488.391 468.497 486.764 457.408C485.991 452.144 485.237 446.875 484.559 441.597C484.085 437.899 483.362 433.67 485.878 430.931C489.418 427.076 492.634 423.777 493.068 418.255C493.475 413.06 491.718 407.396 490.62 402.353C488.316 391.778 485.448 381.333 482.28 370.987C479.06 360.475 475.53 350.063 471.949 339.671C468.601 329.954 465.383 320.15 461.022 310.827C452.747 293.135 438.747 280.034 421.444 271.285C417.141 269.109 408.364 261.343 403.868 259.604C399.735 258.005 399.75 262.674 395.682 260.915C392.43 259.509 389.403 257.634 387.582 254.495C385.605 251.086 380.647 246.317 379.893 242.349C378.293 233.938 380.026 226.778 374.022 220.447C368.693 214.826 361.529 210.974 354.117 208.907C337.812 204.359 316.066 207.538 306.228 222.69C301.529 229.926 299.887 238.672 293.547 244.577C288.01 249.733 289.249 253.258 282.079 255.916C281.672 256.067 270.664 253.705 270.258 253.856C262.414 252.178 254.916 256.877 247.719 259.604C236.99 263.668 226.775 268.959 217.178 275.247C197.826 287.926 181.252 304.39 167.588 323.021C153.811 341.806 143.121 362.861 135.51 384.866C133.661 390.211 132.001 395.621 130.536 401.084C129.717 404.142 128.841 407.313 129.839 410.443C130.655 413.003 132.471 414.91 134.604 416.447C137.494 418.53 143.293 419.883 143.18 424.073C143.093 427.258 142.013 430.61 141.485 433.757C140.858 437.506 140.342 441.276 139.826 445.041C137.48 462.178 135.654 479.411 134.846 496.693C134.051 513.709 133.391 531.073 134.572 548.085C134.65 549.206 134.984 550.236 135.524 551.106C135.02 551.299 134.981 552.238 135.608 552.371C136.047 552.464 136.485 552.557 136.925 552.65C137.837 553.34 138.975 553.764 140.284 553.805C141.172 553.833 142.059 553.873 142.946 553.918C152.302 555.874 161.657 557.722 171.136 559.121C182.658 560.821 194.214 562.208 205.806 563.335C229.625 565.65 253.256 564.882 277.107 563.634C300.921 562.388 324.72 562.096 348.559 562.716C372.418 563.337 396.269 564.375 420.134 564.8C446.795 565.274 473.416 564.545 500.001 562.426C503.646 562.136 505.901 559.236 505.182 555.615C500.875 533.926 495.994 512.38 492.137 490.597Z" fill="#FFDBB4"/>
<path fill-rule="evenodd" clip-rule="evenodd" d="M247.719 259.604L248.24 259.403C255.278 256.654 262.603 252.218 270.258 253.856C270.529 253.756 275.51 254.771 278.922 255.415L275.684 258.795L269.969 259.895C289.686 292.436 313.005 308.707 339.928 308.707C366.85 308.707 387.279 292.436 401.215 259.895L403.116 259.369C403.351 259.423 403.601 259.5 403.869 259.604C408.364 261.342 417.141 269.109 421.445 271.285C438.747 280.033 452.747 293.135 461.023 310.827C465.238 319.839 468.386 329.301 471.615 338.698L471.949 339.67C475.53 350.063 479.06 360.475 482.28 370.987C485.311 380.883 488.067 390.87 490.316 400.974L490.62 402.353C491.719 407.396 493.475 413.06 493.068 418.255C492.913 420.222 492.406 421.907 491.656 423.436L452.658 437.468L471.237 564.184C454.219 564.914 437.185 565.103 420.134 564.8C396.269 564.375 372.418 563.337 348.559 562.716C325.443 562.115 302.363 562.371 279.272 563.523L273.408 563.824C250.811 564.953 228.393 565.53 205.806 563.335L204.267 563.183L204.266 544.648L212.201 441.435L171.991 433.866L132.521 414.696C131.328 413.503 130.371 412.112 129.839 410.443C128.915 407.544 129.598 404.609 130.355 401.763L130.537 401.084C132.001 395.621 133.661 390.211 135.51 384.866C143.121 362.861 153.811 341.806 167.588 323.021C181.252 304.39 197.826 287.926 217.178 275.247C226.775 268.959 236.99 263.668 247.719 259.604Z" fill="#EC7495"/>
<path fill-rule="evenodd" clip-rule="evenodd" d="M262.819 253.323C265.284 253.216 267.798 253.614 270.258 253.856C270.472 253.877 270.554 254.208 270.312 254.258C265.91 255.178 261.557 256.436 257.233 257.714L255.382 258.261C250.507 259.704 245.774 261.191 241.055 263.115C231.648 266.949 222.714 272.123 214.492 278.068C182.831 300.959 159.916 335.617 145.455 371.5C141.528 381.245 138.201 391.232 135.505 401.388C134.85 403.858 134.233 406.339 133.649 408.827C133.477 409.557 132.729 411.425 133.139 412.172C133.502 412.832 134.912 413.239 135.567 413.582L137.778 414.729C142.091 416.952 149.275 420.606 149.995 420.962L151.119 421.515C169.497 430.524 189.133 438.164 209.814 438.693L209.976 436.927C210.898 427.163 212.108 417.348 214.749 407.884C214.891 407.375 215.538 407.547 215.598 407.999C217.069 419.202 216.599 430.493 216.085 441.749C215.176 461.683 213.969 481.607 212.896 501.534C212.359 511.502 211.665 521.463 211.038 531.426C210.411 541.409 210.207 551.632 208.774 561.533C208.455 563.739 205.87 564.939 203.912 564.707C201.746 564.449 200.08 562.541 200.07 560.355C200.044 554.587 200.768 548.751 201.171 542.998C201.554 537.532 201.964 532.068 202.385 526.605C203.923 506.666 205.692 486.75 207.328 466.82C207.908 459.751 208.534 452.688 209.179 445.626C187.271 444.92 166.803 436.805 147.278 427.324C146.995 433.741 146.312 440.146 145.652 446.537C143.807 464.369 142.181 482.195 140.963 500.083C140.349 509.118 139.901 518.164 139.512 527.21C139.32 531.657 139.164 536.104 139.044 540.553C139.004 542.035 138.968 543.518 138.936 545.001L138.869 548.399C138.815 550.552 138.596 552.546 136.785 554.113C134.945 555.704 132.46 555.789 130.639 554.113C128.202 551.868 128.633 548.81 128.705 545.796C128.765 543.253 128.837 540.711 128.921 538.17C129.09 533.086 129.304 528.003 129.566 522.924C130.48 505.164 132.307 487.475 134.694 469.857L135.626 463.056C137.367 450.413 139.278 437.483 143.168 425.304C141.653 424.55 140.143 423.792 138.638 423.03C135.969 421.678 133.209 420.41 130.615 418.918C128.556 417.735 126.781 416.112 126.208 413.717C125.569 411.048 126.546 408.129 127.195 405.526L127.252 405.297C127.888 402.676 128.574 400.066 129.297 397.467C132.23 386.928 135.856 376.596 140.101 366.515C148.599 346.333 159.567 327.16 172.966 309.824C185.027 294.219 199.274 280.068 215.972 269.454C224.136 264.265 232.835 260.005 242.036 256.992C246.336 255.585 251.015 254.36 255.518 253.856C257.947 253.584 260.379 253.429 262.819 253.323ZM306.503 221.343C309.433 218.196 315.254 221.452 313.847 225.618C310.538 235.42 305.269 244.36 297.045 250.801C289.315 256.856 280.097 260.788 270.17 259.949C270.094 259.942 270.027 259.922 269.969 259.895L270.824 261.055C277.54 270.14 284.626 279.1 293.166 286.526C310.566 301.656 334.256 309.816 357.133 304.011C375.131 299.444 390.988 285.212 395.651 267.074C394.983 267.373 394.188 267.476 393.316 267.286C389.585 266.476 385.891 262.552 383.485 259.738C380.881 256.694 378.848 253.408 377.358 249.692C374.631 242.893 373.756 234.139 377.48 227.552C377.94 226.74 378.999 227.195 379.09 227.988L379.231 229.225C379.949 235.398 380.844 241.369 383.754 246.996C385.178 249.75 386.886 252.437 388.964 254.743C390.076 255.977 391.282 257.156 392.583 258.19C393.852 259.198 395.387 259.927 396.523 261.083L396.732 261.305L396.738 261.266C397.025 258.822 398.739 257.745 400.416 257.813C402.038 257.878 403.944 258.592 404.682 258.934L404.752 258.967C416.073 264.401 426.499 271.484 436.31 279.343C456.601 295.594 471.804 316.839 479.17 341.857C482.785 354.136 484.86 366.788 487.049 379.381L488.398 387.096C490.442 398.722 492.725 410.576 497.339 421.391C498.532 424.188 497.612 426.812 494.686 427.912C491.032 429.286 487.364 430.616 483.69 431.93C485.494 439.668 486.594 447.674 487.946 455.451C490.818 471.981 494.338 488.406 497.356 504.914C498.899 513.355 500.292 521.824 501.833 530.266C502.575 534.331 503.35 538.39 504.103 542.454C504.509 544.645 504.877 546.843 505.264 549.037L505.332 549.401C505.554 550.558 505.832 551.756 505.514 552.914C505.151 554.235 504.12 555.168 503.199 556.115C502.442 556.895 501.346 556.9 500.418 556.475L500.113 556.333C498.455 555.558 497.156 554.784 496.568 552.914C496.195 551.73 496.061 550.396 495.818 549.175C495.351 546.836 494.908 544.494 494.49 542.146C493.655 537.447 492.838 532.745 492.041 528.039L491.297 523.632C488.742 508.445 486.316 493.165 485.089 477.817C484.545 471.008 483.968 464.205 483.387 457.401L482.949 452.297C482.397 445.838 481.722 439.215 481.626 432.668L479.429 433.448L468.711 437.237C466.053 438.176 462.67 440.1 459.809 439.75C458.409 439.579 457.342 439.138 456.518 438.337C457.505 452.266 458.841 466.171 460.622 480.005C462.242 492.592 464.038 505.163 466.159 517.676C467.209 523.872 468.289 530.063 469.462 536.237C470.048 539.324 470.653 542.408 471.276 545.488C471.587 547.025 471.957 548.563 472.199 550.112C472.477 551.886 471.988 552.978 470.997 554.438C470.183 555.636 468.554 556.252 467.234 555.425C465.486 554.328 464.574 553.377 464.06 551.38C463.593 549.565 463.309 547.671 462.947 545.833C462.279 542.441 461.634 539.044 461.011 535.643C459.709 528.531 458.508 521.401 457.436 514.249C453.657 489.056 451.259 463.652 450.048 438.207C449.45 425.653 449.266 413.088 449.372 400.521C449.426 394.079 449.637 387.619 450.092 381.194C450.554 374.69 451.514 368.315 452.371 361.874C452.401 361.647 452.721 361.634 452.734 361.874C453.14 369.096 453.776 376.31 454.088 383.551C454.385 390.46 454.516 397.38 454.752 404.292C455.063 413.378 455.494 422.468 456.065 431.553C457.098 430.423 458.655 429.771 460.213 430.026C462.47 429.552 464.9 428.368 467.051 427.649L475.164 424.939C479.428 423.515 483.693 422.1 487.972 420.729C484.146 407.856 481.525 394.792 479.287 381.538L478.289 375.577C476.313 363.843 474.183 352.104 470.604 340.742C466.842 328.796 461.211 317.69 453.743 307.633C446.38 297.721 437.423 288.993 428.201 280.83C420.306 273.841 411.86 267.531 403.807 260.735C403.891 261.185 403.909 261.681 403.835 262.226C402.122 274.757 395.585 286.427 386.475 295.107C368.173 312.545 341.08 316.162 317.655 307.985C294.996 300.076 274.962 281.343 267.884 258.163C267.762 257.767 268.294 257.609 268.507 257.9C268.9 258.439 269.294 258.977 269.689 259.515C269.663 259.301 269.774 259.068 270.037 258.966C278.296 255.778 286.406 251.255 292.596 244.858C295.613 241.739 298.247 238.206 300.325 234.396C301.321 232.571 302.215 230.681 302.929 228.728L303.11 228.222C303.975 225.776 304.698 223.281 306.503 221.343Z" fill="black"/>
<path fill-rule="evenodd" clip-rule="evenodd" d="M412.305 83.9723C410.438 72.6485 416.568 70.299 412.305 59.5348C402.833 39.5896 377.018 40.449 358.074 38.9155C336.945 38.104 315.559 40.8993 296.081 49.3857C291.428 51.4125 286.953 53.7962 282.663 56.5045C278.954 58.8466 279.464 63.2997 281.803 65.7289C264.937 89.6629 274.583 121.789 261.126 146.983C258.64 151.486 255.352 155.524 253.191 160.21C249.906 167.333 249.696 177.538 257.145 182.268C267.636 187.911 273.49 176.739 278.645 192.934C304.389 249.405 356.149 252.586 405.286 223.144C409.537 220.774 413.876 218.096 417.086 214.373C424.373 206.155 423.515 194.6 423.676 184.338C423.766 178.324 423.781 172.309 423.722 166.295C423.493 141.931 415.435 108.135 412.305 83.9723Z" fill="#FFDBB4"/>
<path fill-rule="evenodd" clip-rule="evenodd" d="M307.648 16.2433C337.316 2.75706 370.966 -2.35726 403.328 0.997342C419.302 2.6505 435.065 6.19724 450.067 11.9586L451.382 12.4678C455.085 13.8961 459.077 15.3138 461.891 18.2212C465.166 21.6 466.085 26.7095 463.744 30.8834C461.925 34.1265 458.655 36.4529 455.167 37.6944C456.395 38.7027 457.561 39.8274 458.655 41.0829C460.498 43.1868 460.638 46.187 458.655 48.2623C454.833 52.2617 449.875 55.1553 444.534 56.5422C445.134 59.446 444.81 62.66 443.523 65.554C439.831 73.8615 429.429 74.8516 421.425 74.3583L421.184 74.3429L420.738 79.4475C420.501 82.1671 418.876 84.2758 416.119 84.6927C416.022 84.7073 415.925 84.717 415.828 84.7262C420.192 100.54 422.828 116.842 425.262 133.048C426.533 141.508 427.671 149.987 428.76 158.472L429.122 161.301C430.283 170.448 431.734 179.688 432.237 188.904C432.687 197.266 431.096 205.25 425.953 211.998C421.338 218.048 415.045 222.58 408.277 225.945C392.986 233.55 376.892 239.213 359.98 241.84L358.852 242.014C352.324 243.013 345.598 243.854 339.14 242.044C333.466 240.454 327.516 236.353 328.798 229.765C329.228 227.54 332.334 227.443 333.398 229.164L333.644 229.558C334.92 231.587 336.318 233.473 338.546 234.52C341.153 235.752 344.176 236.095 347.025 236.13C354.983 236.222 363.269 234.234 370.932 232.242C385.241 228.519 399.937 222.45 411.659 213.254C416.646 209.346 420.651 204.46 422.064 198.172C423.81 190.421 422.204 181.947 421.411 174.157C419.778 158.082 417.835 142.037 415.785 126.01L415.374 122.805C413.647 109.406 411.833 96.0024 410.972 82.5258C410.614 82.0362 410.372 81.4787 410.275 80.8679L410.14 79.9905C410.024 79.2391 410.004 78.5507 410.086 77.9157C410.091 75.4821 410.159 73.0631 410.299 70.6291C410.323 70.1933 410.343 69.757 410.357 69.3255C407.832 69.883 405.288 70.3339 402.733 70.7168C384.777 73.4267 366.54 74.1054 348.438 72.7577C339.406 72.0834 330.443 70.9253 321.508 69.4758C316.96 68.739 312.428 67.9246 307.909 67.0132C304.644 66.3588 301.447 65.4716 298.235 64.6378C294.921 69.471 293.131 75.4191 293.479 81.2606C293.871 87.9261 298.302 93.9712 297.059 100.782C295.892 107.156 290.443 109.133 285.062 110.712L282.774 111.374C281.014 111.889 279.735 112.386 279.417 114.506C278.87 118.147 279.543 122.243 279.683 125.903C279.852 130.232 280.074 134.561 280.176 138.89C280.23 141.13 280.316 143.379 280.312 145.619C280.307 147.209 280.07 148.294 279.456 149.322C279.93 149.918 280.355 150.563 280.733 151.247C280.854 151.47 280.554 151.707 280.375 151.523C279.896 151.024 279.387 150.573 278.851 150.17C278.58 150.505 278.266 150.844 277.897 151.208L277.869 151.169C276.718 152.318 274.889 152.43 273.461 151.208L273.087 150.883C272.042 149.965 271.324 149.2 271.034 147.684C271.019 147.606 271.004 147.529 270.995 147.451C268.339 147.359 265.64 147.989 263.25 149.312C259.462 151.412 256.797 154.403 255.22 158.096C255.849 158.833 256.584 159.493 257.44 160.045C257.561 160.128 257.455 160.307 257.324 160.244C256.449 159.832 255.665 159.323 254.963 158.727C254.397 160.181 254.001 161.742 253.759 163.395C252.908 169.232 254.426 176.363 259.69 179.688C261.968 181.128 264.571 181.908 267.27 181.918C268.585 181.922 269.723 181.7 271 181.385C271.866 181.171 272.727 180.861 273.631 180.861C274.405 180.861 275.121 181.055 275.784 181.443L275.6 181.459C275.153 181.501 275.239 181.52 275.861 181.52C277.796 181.603 278.904 183.571 278.014 185.282L277.897 185.547C277.873 185.6 277.852 185.644 277.835 185.679L277.765 186.133C277.758 186.176 277.751 186.221 277.743 186.266L277.716 186.358C277.711 186.373 277.706 186.388 277.7 186.402L280.602 190.837C284.16 196.262 287.797 201.666 291.936 206.622C294.839 210.098 297.915 213.506 301.166 216.661C304.088 219.497 307.59 220.864 310.899 223.094C312.665 224.277 313.182 226.754 311.577 228.349C306.865 233.037 300.194 229.314 296.329 225.504C292.671 221.892 289.513 217.549 286.789 213.2C281.957 205.468 278.111 197.246 276.427 188.322C275.726 188.967 274.831 189.369 273.926 189.684C272.112 190.314 270.114 190.576 268.199 190.644C264.527 190.765 260.851 189.873 257.547 188.293C244.103 181.87 242.13 162.634 250.349 151.29C249.24 148.07 248.621 144.575 247.949 141.595L247.643 140.263C244.245 125.384 241.962 109.719 247.988 95.1395C248.762 93.2586 249.633 91.4262 250.663 89.6713C251.49 88.2606 252.912 86.7578 253.304 85.1533C254.175 81.629 248.801 77.9254 247.233 75.1282C245.39 71.8463 245.129 67.973 247.64 64.9718C247.959 64.5942 248.307 64.2447 248.684 63.9398C246.304 59.6156 246.193 54.1765 249.328 49.9105C251.389 47.0989 254.533 45.1307 257.968 44.5345C260.067 44.1709 262.592 44.3066 264.9 44.9562C277.535 33.2006 291.951 23.3791 307.648 16.2433ZM259.128 163.337C262.5 160.356 266.225 158.795 270.821 159.187C275.441 159.584 281.004 161.5 283.717 165.47C285.861 168.606 281.492 173.207 278.348 170.851C275.484 168.703 273.573 166.279 270.018 165.126C266.825 164.093 262.872 163.429 259.53 164.02C259.162 164.083 258.795 163.628 259.128 163.337Z" fill="black"/>
<path fill-rule="evenodd" clip-rule="evenodd" d="M383.87 197.472C384.614 196.179 386.326 194.981 387.893 195.164C394.912 195.988 394.899 204.497 392.189 209.465C389.786 213.87 384.813 216.456 379.835 216.078C374.606 215.681 370.15 212.607 368.19 207.715C366.893 204.479 366.294 198.506 369.743 196.331C369.807 196.291 369.913 196.301 369.964 196.359C371.618 198.283 371.683 201.172 373.131 203.314C374.478 205.307 376.57 206.952 379.021 207.206C380.851 207.396 382.703 206.736 383.419 205.093C383.806 204.204 383.762 203.721 383.617 203.109L383.484 202.578C383.026 200.715 382.82 199.297 383.87 197.472ZM385.746 160.152C389.407 162.377 394.985 167.565 391.047 173.082C386.411 177.946 379.737 172.369 376.448 169.847C373.399 167.892 369.972 172.919 372.802 175.202C396.567 192.796 406.211 160.733 387.598 157.535C385.548 157.183 384.787 159.463 385.746 160.152ZM347.089 144.894C349.336 141.523 354.465 142.019 355.703 146.019C356.373 148.186 355.447 150.134 355.495 152.298C355.536 154.126 355.416 156.163 354.855 157.934C353.578 161.971 349.947 164.822 345.651 164.704C341.37 164.586 337.599 161.876 335.805 158.06C334.006 154.228 334.387 150.264 335.701 146.368C335.764 146.181 336.009 146.09 336.157 146.248C337.71 147.898 338.847 149.64 340.023 151.488L341.228 153.382C342.149 154.808 343.488 156.63 345.208 156.516L345.467 156.49C345.945 156.449 345.871 156.544 346.24 155.893C346.411 155.591 346.38 155.031 346.462 154.675L346.491 154.555L346.475 154.49C346.439 154.318 346.403 153.993 346.373 153.429L346.367 153.305C346.242 150.669 345.497 147.282 347.089 144.894ZM404.046 147.138C403.643 142.826 409.704 141.869 411.72 145.059C412.771 146.723 413.077 148.813 413.309 150.793L413.418 151.733C413.656 153.766 413.751 155.882 412.868 157.779C411.478 160.766 408.454 162.346 405.193 162.096C402.078 161.856 399.236 160.05 397.738 157.309C396.403 154.863 395.075 150.087 396.697 147.535C396.795 147.381 396.991 147.361 397.125 147.48C398.658 148.841 398.908 151.323 399.819 153.096C400.759 154.924 402.185 156.706 404.345 156.984C406.412 157.25 407.202 156.121 406.675 154.15C405.994 151.606 404.302 149.875 404.046 147.138ZM348.727 119.261L349.718 118.881C353.114 117.598 357.777 116.115 360.539 118.877C362.242 120.58 362.566 123.088 361.351 125.167C359.877 127.684 357.235 127.746 354.683 128.117C351.781 128.539 348.829 129.341 346.127 130.484C343.083 131.772 340.258 133.377 337.491 135.17C334.86 136.874 332.239 139.659 329.091 140.184C328.962 140.206 328.816 140.15 328.783 140.009C328.068 136.931 330.055 133.902 331.828 131.5C333.974 128.593 336.573 126.206 339.479 124.066C342.284 122.001 345.488 120.508 348.727 119.261ZM410.422 130.205L410.725 130.152C412.784 129.809 414.651 129.888 416.203 131.519C417.388 132.764 417.844 134.377 417.279 136.022C416.758 137.54 415.593 139.082 413.902 139.4C408.191 140.474 401.867 140.297 396.128 139.483C393.502 139.111 390.853 138.655 388.296 137.937L387.119 137.596C384.984 136.986 382.54 136.349 380.989 134.778C380.432 134.214 380.753 133.407 381.42 133.145C384.126 132.086 387.835 132.649 390.72 132.566C394.077 132.471 397.439 132.219 400.779 131.872C404.044 131.533 407.203 130.796 410.422 130.205Z" fill="black"/>
</svg>
