<svg width="664" height="843" viewBox="0 0 664 843" fill="none" xmlns="http://www.w3.org/2000/svg">
<path d="M539.374 66.4939C595.65 102.697 646.909 156.107 660.171 218.118C673.792 280.13 649.418 350.745 613.215 415.625C577.011 480.504 528.62 538.932 470.551 552.194C412.482 565.098 344.377 532.12 278.78 503.803C213.184 475.127 149.738 451.111 110.667 403.437C71.9541 355.763 57.6161 284.073 66.5774 213.816C75.1802 143.202 107.082 74.022 159.774 37.101C212.825 0.180623 286.666 -4.47923 354.054 3.04823C421.802 10.5757 483.097 30.291 539.374 66.4939Z" fill="#FFDBB4"/>
<path d="M364 582.263C502.071 582.263 614 569.892 614 554.632C614 539.371 502.071 527 364 527C225.929 527 114 539.371 114 554.632C114 569.892 225.929 582.263 364 582.263Z" fill="#F7859C"/>
<path fill-rule="evenodd" clip-rule="evenodd" d="M6.35337 445.859C9.03934 445.087 12.3951 444.889 15.3336 444.748C25.7199 444.137 36.3105 449.089 46.4944 451.321C50.9523 452.423 55.6726 453.721 60.4431 454.688C64.6783 455.262 69.0568 455.694 73.4588 455.968C77.0169 456.075 81.1572 455.802 82.3721 459.543C89.5241 460.93 95.8551 461.506 102.673 460.328C102.034 458.155 101.67 455.884 102.331 453.545C101.997 452.99 101.544 452.24 101.301 451.735H102.121C114.087 446.945 127.027 443.673 139.057 438.71C154.758 433.051 177.881 422.117 196.023 414.651C194.793 407.916 194.337 401.072 194.859 394.419L194.13 393.83C193.89 392.523 193.518 390.958 192.844 389.773C191.988 387.502 191.968 384.403 191.628 381.836C190.919 376.816 190.446 369.257 191.736 363.297C192.299 355.213 197.748 348.982 203.623 343.984C210.836 336.85 218.059 329.889 225.101 322.48C264.074 282.747 267.156 232.704 328.167 217.495L328.196 217.259C328.677 216.722 328.874 216.297 329.421 217.145C331.436 216.373 333.948 216.437 335.635 215.132C338.629 212.4 340.754 209.246 342.144 205.504C343.214 198.429 342.457 187.525 348.655 182.998C355.539 178.874 392.115 175.938 395.27 184.954C397.227 186.792 398.117 189.128 398.729 191.987C400.767 195.842 402.052 200.116 404.105 204.03C408.47 212.81 411.299 210.864 419.005 212.87C419.841 211.006 422.381 211.382 424.231 211.652C446.64 214.802 473.962 223.397 483.557 244.461L482.74 244.356C499.302 275.474 488.561 315.047 485.599 348.023C483.203 377.335 485.943 406.786 492.455 434.128C500.447 463.133 500.906 495.578 485.048 521.833C483.437 524.838 481.474 529.085 478.002 527.2C476.099 528.638 473.961 529.632 471.009 530.498C470.195 531.088 469.352 532.08 468.5 532.504C468.46 532.561 467.088 531.77 467.016 531.749C464.423 535.449 322.073 547.814 307.301 549.734C294.286 551.303 277.089 555.31 266.483 545.922C257.718 543.417 248.547 536.898 241.542 530.424C237.292 592.069 234.941 718.316 231.149 719.196C229.489 719.758 227.249 720.432 225.37 720.971C225.359 725.4 225.029 730.432 225.377 734.786C225.96 739.703 227.435 745.509 228.103 750.679C230.972 750.487 231.816 753.365 232.15 755.32C234.626 771.47 234.553 784.49 234.375 802.241C205.251 819.397 171.118 828.831 138.348 839.918C135.209 842.277 128.407 839.725 124.783 839.088C112.2 836.61 97.9025 829.282 101.079 815.845C103.404 805.728 113.168 799.906 121.388 793.954C130.38 787.439 139.859 780.93 148.129 773.172C154.764 766.922 159.718 762.073 165.251 755.02C167.705 751.74 170.322 746.35 173.624 743.932C170.136 739.795 177.183 743.673 179.851 743.912C181.42 736.524 183.363 729.431 185.694 722.344L183.428 722.447C175.992 715.501 171.823 682.158 171.305 672.266C167.577 607.78 167.666 533.456 182.62 479.148C171.261 486.143 158.804 491.986 147.508 498.904C140.385 503.078 133.157 508.872 125.172 510.896C124.652 512.39 122.748 512.97 121.709 511.507C120.28 511.684 118.439 511.091 118.281 510.439C116.82 507.45 114.702 504.229 114.956 500.981L116.918 496.431C112.524 498.217 107.747 501.976 103.057 502.32C93.5834 533.955 74.9182 516.234 56.9573 503.922C46.1178 496.347 34.2608 487.983 22.8533 479.907C13.175 472.208 -5.72023 464.902 3.5424 449.651" fill="#FFDBB4"/>
<path d="M421.668 213.524C420.825 213.699 420.276 214.587 419.821 215.505L419.728 215.695L419.537 216.099C415.019 229.753 400.684 237.37 387.76 242.439L386.97 242.746L386.169 243.053C365.055 252.428 330.019 248.057 326.748 220.663C277.275 233.812 263.871 289.479 232.367 323.38C224.984 331.664 217.226 339.599 209.669 347.719C207.285 350.058 205.106 353.572 201.775 354.398C199.778 357.536 198.346 361.087 198.1 364.798C208.798 360.015 220.873 362.287 232.197 365.908C235.501 366.965 269.484 383.764 289.274 379.771C290.286 379.566 288.376 419.591 290.35 420.129C307.472 424.795 359.734 429.441 370.21 426.67C405.948 417.22 460.205 547.989 480.142 524.399C485.163 518.459 498.075 494.681 497.889 468.666C497.686 440.323 484.126 408.74 483.814 379.771C483.344 336.055 489.303 310.118 489.557 306.675C493.899 274.641 488.693 232.37 452.588 221.945C442.821 217.469 432.295 214.572 421.668 213.524ZM199.869 371.159C197.042 373.173 196.446 376.289 196.773 379.771C196.902 381.124 197.071 382.477 197.244 383.827C200.794 380.137 206.061 378.83 211.119 378.428C210.924 378.081 210.708 377.607 210.72 377.165C206.878 375.582 203.251 373.575 199.869 371.159Z" fill="#E86BBB"/>
<path fill-rule="evenodd" clip-rule="evenodd" d="M173.209 745.112L172.731 745.782C155.302 770.24 136.019 788.65 115.556 798.078L114.868 798.391L114.805 798.429C108.97 801.837 104.128 807.242 102.228 812.791C100.005 819.286 101.886 825.41 108.2 829.887L108.392 830.022L108.425 830.044C116.372 835.239 125.751 838.469 134.964 839.114L135.306 839.137L135.752 839.165L136.133 838.93C138.577 837.422 140.927 836.555 145.949 835.114L148.065 834.508L148.938 834.253L149.372 834.124C151.204 833.575 152.433 833.156 153.72 832.634L154.128 832.466L155.496 832.004C180.068 823.681 204.342 814.144 228.23 803.44L229.635 802.809L231.787 801.837L231.837 800.988C232.93 782.389 232.885 767.543 231.328 753.558L231.277 753.102L228.475 753.367C228.885 758.82 223.429 763.434 218.276 761.693L218.119 761.639L218.047 761.615L217.833 761.548C216.38 761.081 215.173 760.402 213.026 758.941L211.436 757.851L211.032 757.58L210.739 757.386C210.596 757.293 210.459 757.205 210.319 757.117L210.123 756.993C201.298 751.469 191.799 747.746 182.154 746.163C181.357 746.017 180.536 745.893 179.637 745.78L178.644 745.662L177.622 745.555L174.452 745.245L173.209 745.112ZM10.3208 445.173L9.68917 445.85C7.59871 448.088 6.01304 450.281 5.00987 452.544C3.75832 455.367 3.49369 458.162 4.42644 460.865L4.50118 461.075L4.51853 461.115C6.08797 464.716 9.76666 467.901 16.8088 472.547L17.8787 473.247C19.0071 473.977 22.0518 475.944 22.9719 476.553L23.3772 476.823C25.033 477.93 26.2787 478.826 27.2743 479.641L27.4385 479.777L29.7924 481.413L34.6361 484.785L38.2299 487.291L40.7028 489.017C50.1533 495.616 59.2761 502.022 68.1881 508.318L68.6408 508.625L68.9972 508.87L69.5086 509.228L70.2306 509.74L72.6283 511.456L73.1074 511.795L73.5802 512.127L74.0583 512.459L74.5423 512.79L75.0181 513.112C79.892 516.377 83.4835 517.992 87.3088 518.216C90.0317 518.375 92.5982 517.704 94.9853 516.117L95.1555 516.002L95.2298 515.951L95.4865 515.72L95.7009 515.524L95.9111 515.327L96.118 515.13C97.2141 514.071 98.2105 512.924 99.7755 510.986L101.093 509.346L101.62 508.697L102.008 508.224L102.285 507.891C103.141 506.87 103.793 506.159 104.528 505.443L104.771 505.208L106.434 503.624L104.267 502.861C95.5268 499.788 88.3811 490.015 85.4448 478.829L85.3411 478.427L85.3193 478.366C84.7887 476.872 84.5974 475.342 84.5453 472.844L84.52 470.939L84.5077 470.311L84.4965 469.888L84.4825 469.472C84.3707 466.482 84.0406 464.78 83.0954 462.893L82.9754 462.659L82.9357 462.583L82.8871 462.513C82.8281 462.427 82.8215 462.414 82.8459 462.37L83.3437 461.525L82.7535 460.77C82.4923 460.435 82.2049 460.106 81.8697 459.753L81.7231 459.6L81.3959 459.261L80.9309 459.188C66.3087 456.876 51.2999 453.467 33.4163 448.592L31.6161 448.1L30.7201 447.858L30.1147 447.698L29.5155 447.541C23.6012 446.002 19.9887 445.41 15.8577 445.463L15.5071 445.469C15.1244 445.475 14.7995 445.497 14.2462 445.547L13.6744 445.599L13.4113 445.621L13.1586 445.64C12.229 445.703 11.7345 445.668 11.2506 445.505L11.1921 445.485L10.3208 445.173Z" fill="white"/>
<path fill-rule="evenodd" clip-rule="evenodd" d="M413.5 210.938C404.351 208.714 402.788 186.777 397.264 189.901C394.07 192.679 399.294 197.919 400.218 201.055L400.624 201.851C402.498 205.503 404.618 209.142 408.312 211.248C410.686 213.748 417.784 211.293 416.74 215.275C413.096 227.276 393.756 235.586 382.358 239.323C364.642 245.979 335.982 243.727 331.819 221.415C341.537 219.636 348.721 202.099 342.732 194.797C342.528 201.89 340.59 209.209 335.024 214.015L334.717 214.297C333.738 215.191 332.469 216.258 331.205 216.059C329.972 214.342 327.579 215.319 326.874 217.131C271.546 226.698 259.22 286.384 224.377 321.516C217.417 328.845 210.141 335.862 202.959 342.968C195.624 348.79 190.433 356.905 190.071 366.433C189.415 371.733 189.74 377.038 190.442 382.346L190.49 382.825C190.815 386.115 191.008 389.648 192.574 392.569C192.844 393.558 192.735 394.809 193.591 395.508C193.217 401.564 193.572 407.729 194.597 413.767L191.927 414.959C162.552 428.044 132.838 440.378 102.209 450.187C99.5911 449.712 99.8046 452.756 101.072 454.14C100.738 455.768 100.701 457.461 101.094 459.07C95.4849 459.876 89.7879 459.206 84.2513 458.183C82.4999 454.326 77.8464 454.532 74.2484 454.423C69.7782 454.143 65.3161 453.707 60.8783 453.086C49.944 450.643 39.2066 447.428 28.3776 444.604C21.1311 442.564 13.3165 442.661 6.04705 444.538C4.81211 445.922 3.67162 447.401 2.7091 448.97C-3.93596 459.276 2.61172 468.719 11.8876 474.132C26.7693 484.683 41.6551 495.22 56.6033 505.673L57.6892 506.448C75.474 519.179 95.4819 535.295 104.98 504.307C108.172 503.933 110.97 501.79 113.944 500.525C113.144 504.244 115.533 508 117.181 511.188C117.89 513.004 119.829 513.603 121.619 513.586C123.152 515.09 126.029 514.498 127.031 512.714C135.161 510.386 141.878 504.952 149.075 500.729C159.307 494.514 170.041 489.215 180.42 483.262C163.177 554.664 167.395 629.04 171.983 701.722L172.016 702.379C172.584 712.99 175.017 718.01 183.817 724.514C182.284 729.191 180.913 733.887 179.867 738.698C179.498 739.814 177.798 738.763 177.785 740.296C174.658 739.564 168.305 740.347 170.521 744.672C164.244 749.941 159.995 757.077 154.493 763.084C144.803 774.701 132.136 783.347 119.716 791.866C91.1648 806.416 89.5285 831.631 122.933 840.245L123.268 840.324C127.868 841.431 133.408 843.962 137.868 841.831C144.538 840.547 151.159 837.946 157.686 835.965C183.965 827.268 209.669 817.083 234.574 805.379C235.477 804.954 235.988 803.982 236.011 803.01C235.734 794.979 237.914 750.97 229.588 750.023C227.729 741.032 227.437 731.75 227.774 722.574C230.475 721.724 233.206 720.905 236.004 720.374C238.72 719.518 242.967 719.326 244.786 717.126C245.44 716.889 245.919 716.305 245.821 715.382C244.35 701.591 243.235 687.764 242.422 673.919C239.635 627.487 240.581 580.911 243.755 534.53C250.294 540.186 257.746 545.138 266.042 547.772C270.621 552.361 277.963 553.345 284.213 553.901C292.251 554.398 300.148 552.793 308.08 551.794C321.55 550.098 334.927 551.599 348.299 553.262L352.869 553.832C385.607 557.424 420.987 558.166 451.5 544.172C457.245 544.682 464.377 538.472 467.961 534.323C469.544 535.3 471.099 533.391 472.36 532.386C474.441 531.754 476.802 530.846 478.691 529.52C483.482 531.088 486.067 524.867 487.887 521.484C516.775 472.008 484.604 422.76 487.023 370.295C485.558 329.163 504.317 286.31 486.187 246.86C482.519 230.166 461.068 218.629 444.921 214.386C439.718 213.527 420.021 206.404 417.851 212.393C416.825 211.045 415.072 210.944 413.5 210.938ZM173.877 746.599C176.584 746.89 179.224 747.057 181.9 747.547C191.667 749.15 200.983 752.932 209.376 758.186C212.094 759.881 214.52 762.017 217.639 762.962C224.049 765.29 230.349 759.51 229.879 753.261C231.666 768.964 231.359 785.123 230.432 800.906C205.36 812.249 179.727 822.363 153.628 831.15C147.751 833.613 140.792 834.401 135.394 837.732C126.19 837.152 116.925 833.92 109.195 828.866C96.3718 819.968 104.885 805.854 115.515 799.644C138.915 789.082 158.834 767.71 173.877 746.599ZM225.147 723.376C225.636 728.031 222.1 735.283 222.599 744.56C222.983 747.458 223.886 750.492 223.572 753.401C222.132 764.189 210.452 750.479 205.625 748.977C198.773 745.208 191.326 742.641 183.673 741.238C183.72 738.75 185.367 737.757 185.583 735.299C185.894 731.676 185.878 728.196 186.042 724.539C195.995 729.066 214.589 725.865 225.147 723.376ZM171.517 745.896C171.691 746.012 171.874 746.11 172.062 746.198C170.679 747.873 169.48 749.733 167.84 751.174L168.538 750.089C169.473 748.641 170.428 747.2 171.517 745.896ZM480.656 359.9C481.157 361.938 482.071 363.855 483.439 365.485C476.373 422.784 512.727 470.55 479.303 523.825C478.88 524.021 478.495 524.266 478.124 524.573C477.927 524.442 477.731 524.304 477.538 524.166C461.871 496.44 439.57 472.524 421.801 445.993C418.39 439.333 412.776 432.63 410.626 424.935C446.335 410.833 460.599 390.258 480.656 359.9ZM10.7179 446.81C12.232 447.352 13.9167 446.905 15.5325 446.876C21.269 446.753 26.8751 448.25 32.3618 449.763C48.3197 454.128 64.3618 457.993 80.7111 460.578C81.0415 460.92 81.3574 461.269 81.6443 461.636C81.361 462.116 81.3175 462.716 81.7285 463.312C84.195 468.024 82.2012 473.793 83.9931 478.837C86.5892 489.048 93.4949 500.565 103.8 504.189C100.363 507.465 97.9003 511.68 94.3598 514.841C85.6586 520.806 76.0759 511.916 68.9724 507.149C55.4479 497.594 41.8879 488.105 28.2908 478.655C22.1992 473.606 8.72378 467.242 5.80888 460.552C3.94149 455.424 7.34041 450.427 10.7179 446.81ZM103.923 459.829C109.745 471.703 113.105 484.328 116.467 497.076C112.971 498.038 109.75 499.545 106.313 500.558C101.472 501.647 94.6371 492.291 92.21 488.577C89.7077 484.423 87.9558 479.86 87.1433 475.078C86.4574 470.395 87.1881 465.532 85.1513 461.195C91.4579 461.839 97.8555 461.974 103.923 459.829ZM450.012 435.33C444.546 433.798 456.982 446.167 457.698 447.487C465.784 457.035 473.193 467.12 480.545 477.236L482.774 480.307C482.988 480.618 484.464 482.799 483.396 482.522C483.299 482.497 483.253 482.625 483.331 482.678C490.13 483.881 453.291 436.171 450.012 435.33ZM316.739 429.491C316.297 428.159 318.396 427.59 318.838 428.914L320.232 433.111C325.491 448.97 330.717 464.851 337.003 480.339C337.529 481.639 335.426 482.205 334.904 480.92C328.067 464.065 322.481 446.746 316.739 429.491ZM255.609 423.939C257.526 433.037 262.37 441.24 265.306 449.937C259.791 448.721 255.543 443.582 252.328 439.161L252.232 439.014C250.715 436.679 248.952 433.032 245.508 434.679C240.28 437.717 244.025 448.489 244.123 453.595C244.786 460.594 247.061 467.142 248.612 473.941C244.626 471.217 243.481 465.845 241.538 461.66L234.062 443.722C228.566 436.19 231.119 458.744 231.402 460.873C231.85 465.548 233.819 470.252 233.046 474.96C229.947 471.624 227.994 467.432 226.354 463.179C224.078 457.264 222.001 451.272 219.836 445.318C219.087 443.41 216.249 444.079 216.66 446.181C216.8 452.938 216.911 459.696 217.019 466.454L217.099 471.522C217.114 472.483 217.589 475.29 215.93 474.514C207.215 465.365 204.98 447.071 206.114 434.781C223.246 435.194 240.725 432.972 255.609 423.939ZM103.156 458.07C103.227 458.293 103.308 458.517 103.388 458.74C103.339 458.75 103.286 458.76 103.237 458.774C103.206 458.537 103.177 458.304 103.156 458.07ZM483.381 458.07C485.281 456.666 453.34 415.649 455.41 427.49C464.321 438.035 474.712 447.275 483.381 458.07ZM201.3 367.434C231.171 360.416 257.476 386.634 287.474 382.673C287.126 392.063 286.644 401.517 286.833 410.912C246.997 414.198 251.529 431.156 205.671 429.449C199.745 425.479 197.311 401.149 197.812 393.804C197.429 385.12 204.9 381.222 212.343 379.699C215.032 381.323 219.857 376.478 215.864 374.773C210.608 373.192 205.69 370.705 201.3 367.434ZM421.668 213.524C432.295 214.572 442.821 217.469 452.588 221.945C488.693 232.37 493.899 274.641 489.557 306.675C487.758 331.035 480.813 354.859 466.21 374.668C427.332 433.969 362.94 424.579 301.947 416.736C299.749 415.206 296.023 416.292 293.904 414.271C294.126 414.195 294.326 414.089 294.496 413.959C293.478 413.164 292.69 411.77 292.455 410.289L292.016 410.332C291.585 401.135 291.93 392.119 291.791 382.994C311.832 377.497 333.326 374.688 353.637 369.212C355.946 370.823 358.608 368.969 360.863 368.094C366.709 365.607 372.607 363.244 378.549 360.995L380.035 360.435C383.909 358.983 387.779 357.494 391.616 355.941L393.053 355.356C395.251 354.457 400.802 351.129 403.199 353.207L403.006 353.624C401.584 356.727 396.686 368.208 402.707 365.937C407.596 362.503 410.131 338.558 414.974 338.346C416.639 342.804 417.832 347.432 418.105 352.197C418.203 353.269 419.612 354.173 420.459 353.172C426.202 345.606 417.527 337.366 417.295 329.381C416.748 320.096 420.855 311.408 422.901 302.521L423.027 301.908C424.227 296.142 426.094 289.152 425.598 283.981L424.407 288.469C423.211 292.961 421.987 297.453 420.582 301.882C417.095 312.942 410.8 324.337 414.298 336.172C407.28 336.406 406.094 347.486 403.457 352.546C399.192 347.01 369.179 360.284 362.33 362.413L361.009 360.914C339.559 336.587 324.075 320.122 290.829 339.366C296.573 320.835 297.127 301.152 298.107 281.909C297.771 278.248 299.887 268.591 296.903 266.593C296.386 266.668 295.882 266.825 295.407 267.033L295.407 268.93C295.393 272.604 295.222 278.697 293.681 280.081L292.975 287.357C291.123 306.275 289.024 325.179 283.376 343.409C269.819 350.991 257.448 360.484 245.81 370.726L244.484 370.242C230.104 364.976 212.802 358.226 198.1 364.798C198.346 361.087 199.778 357.536 201.775 354.398C205.106 353.572 207.285 350.058 209.669 347.719C217.226 339.599 224.984 331.664 232.367 323.38C263.871 289.479 277.275 233.812 326.748 220.663C330.019 248.057 365.055 252.428 386.169 243.053L386.97 242.746C400.095 237.679 414.927 230.031 419.536 216.099L419.728 215.695C420.202 214.713 420.767 213.711 421.668 213.524ZM413.881 369.415C413.843 369.373 413.768 369.429 413.801 369.477C419.953 377.198 424.958 387.729 418.845 396.953C417.715 399.029 420.356 401.024 422.046 399.441C430.531 389.802 421.117 376.738 413.881 369.415ZM199.868 371.159C203.251 373.575 206.878 375.582 210.72 377.165C210.708 377.607 210.924 378.081 211.119 378.428C206.061 378.83 200.794 380.137 197.244 383.827C197.071 382.477 196.902 381.124 196.773 379.771C196.446 376.289 197.042 373.173 199.868 371.159ZM432.468 337.027L432.429 336.84C432.401 336.629 432.081 336.615 432.09 336.84C432.208 339.601 434.215 341.564 435.916 343.53C438.439 346.445 440.963 349.361 443.488 352.275C447.708 357.355 453.926 362.462 452.528 369.821C452.502 372.434 455.777 372.995 457.105 371.073C462.389 360.993 445.756 352.416 440.15 345.913C437.517 343.099 433.368 341.028 432.468 337.027ZM353.272 367.289C353.194 367.414 353.137 367.55 353.107 367.69C352.221 367.784 351.339 367.885 350.457 367.993L353.272 367.289ZM485.574 343.714C485.416 344.767 485.268 345.823 485.126 346.88L484.987 347.936L484.965 347.844C484.893 347.57 484.757 347.332 484.579 347.141L484.518 347.079C484.885 345.963 485.236 344.841 485.574 343.714ZM242.74 332.812C240.62 332.585 250.224 339.493 250.755 340.347C251.529 341.021 252.434 339.824 251.608 339.241C248.624 337.135 245.683 334.974 242.74 332.812ZM261.424 312.493C259.949 311.889 258.948 314.345 260.346 315.03C265.442 317.523 270.829 319.287 275.524 322.567C275.73 322.711 275.988 322.376 275.793 322.221L275.229 321.775C270.904 318.34 266.585 314.607 261.424 312.493ZM483.814 281.434C482.39 288.142 474.686 290.345 468.706 292.132L466.838 292.843C461.558 294.865 456.088 297.139 452.289 301.41C450.8 306.228 461.424 297.836 462.907 297.411C470.162 292.911 483.271 292.146 483.814 281.434ZM326.531 218.802C326.491 219.143 326.471 219.491 326.461 219.84C326.014 219.84 325.57 219.843 325.123 219.858C325.643 219.552 326.12 219.204 326.531 218.802Z" fill="black"/>
<path fill-rule="evenodd" clip-rule="evenodd" d="M295.219 123.818C296.549 101.931 303.636 77.1171 324.494 66.3711C370.477 47.8778 430.935 94.4492 434.136 142.026C435.251 158.311 426.228 176.107 409.739 180.635C406.073 185.502 400.529 188.475 395.057 191.054C329.879 224.942 287.777 197.395 295.219 123.818Z" fill="#FFDBB4"/>
<path fill-rule="evenodd" clip-rule="evenodd" d="M280.37 110.203C282.673 103.792 285.107 97.4304 287.666 91.1179C290.159 84.9743 292.411 78.698 295.507 72.8456C313.997 37.8913 347.62 37.8913 365.001 42.4585C374.014 38.5669 390.896 39.6646 400.282 43.1763C415.476 48.8614 433.997 71.2252 440.329 81.2731C454.311 103.458 463.036 132.985 453.749 158.621C452.535 161.971 450.987 165.074 449.244 168.065C450.342 169.556 451.606 170.968 453.006 172.356C457.166 176.481 461.326 180.469 464.92 185.121C468.491 189.745 471.451 194.661 473.655 200.081C477.811 210.304 478.012 221.879 472.517 231.633C467.737 240.12 459.269 246.439 449.729 247.042C449.239 247.111 448.748 247.173 448.256 247.223C446.992 249.309 445.45 251.23 443.691 252.905C438.301 258.043 425.454 260.678 418.126 260.847C417.75 261.15 417.371 261.452 416.992 261.751C412.508 265.288 407.803 268.855 402.655 271.371C399.169 273.078 394.597 274.503 390.959 273.271C389.309 274.376 386.602 274.144 384.966 273.24C382.276 271.755 380.089 269.081 378.758 266.343C375.531 259.696 376.307 252.423 377.136 245.323C378.049 237.48 378.926 229.633 379.818 221.79C380.517 215.657 381.247 209.422 383.108 203.514C384.07 200.453 385.331 197.511 386.96 194.746C386.918 194.513 386.925 194.281 386.992 194.063C387.525 192.325 388.628 191.413 389.934 190.231C390.103 190.08 390.271 189.925 390.436 189.767C391.089 189.021 391.788 188.328 392.536 187.74C392.824 187.448 393.108 187.152 393.393 186.857C395.756 184.376 397.989 181.769 399.973 178.975C401.897 176.266 403.635 173.437 405.289 170.555C406.971 167.624 408.084 164.39 409.762 161.48C409.906 161.23 410.271 161.181 410.475 161.389C410.995 161.927 411.328 162.525 411.265 163.155L411.525 163.194C411.623 162.244 412.497 161.47 413.684 161.677C415.461 161.987 416.921 162.103 418.459 161.512C418.189 159.714 417.94 157.912 417.694 156.107C417.244 152.786 416.827 149.454 416.469 146.121C415.601 146.329 414.741 146.628 413.898 147.008C412.697 147.546 411.563 148.271 410.594 149.162C409.639 150.041 408.979 151.227 407.813 151.839C406.472 152.539 404.853 151.382 405.247 149.862C406.044 146.79 410.556 145.031 413.347 144.45C414.306 144.249 415.285 144.165 416.265 144.186C416.044 142.047 415.847 139.907 415.686 137.765C415.608 136.751 415.538 135.738 415.471 134.721C413.301 134.063 410.977 133.866 408.719 134.176C407.975 134.77 407.23 135.358 406.511 135.953C404.225 137.846 401.95 139.749 399.702 141.688C399.499 141.86 399.299 142.033 399.095 142.209C397.761 143.359 396.096 142.219 396.321 140.59C398.154 127.24 389.994 116.621 380.44 108.394C369.864 99.2847 350.637 98.2239 338.059 82.4444C332.267 83.6259 319.334 87.1348 313.997 95.657C306.525 107.599 307.501 118.299 306.932 131.846C306.364 145.404 304.917 159.545 307.989 172.912C310.823 185.238 318.495 195.77 330.398 200.611C330.693 200.731 330.991 200.847 331.29 200.96C337.445 203.285 344.162 203.943 350.637 202.719C357.803 201.361 363.786 198.074 369.748 194.031C370.092 193.803 370.594 194.274 370.335 194.619C362.476 205.055 347.041 208.542 334.797 205.787C334.225 205.657 333.656 205.516 333.091 205.361C335.83 213.254 335.278 221.917 331.711 229.601C329.566 234.225 326.293 238.226 322.308 241.382C317.915 244.858 312.466 247.666 309.418 252.546C306.627 257.019 307.456 262.043 312.234 264.626C313.439 265.28 313.902 267.395 312.708 268.324C312.252 268.676 311.795 269.035 311.328 269.387C308.653 271.41 301.304 275.21 300.114 275.351C289.545 276.607 282.438 268.831 277.884 259.658C272.536 248.891 273.927 235.77 279.819 225.516C284.545 217.29 293.853 209.183 290.152 198.771C288.832 195.052 286.132 191.881 283.509 189.017C280.517 185.755 277.301 182.701 274.432 179.323C271.581 175.97 269.053 172.321 267.642 168.113C265.581 161.962 266.606 155.312 268.154 149.172C271.472 135.991 275.781 122.986 280.37 110.203Z" fill="black"/>
<path fill-rule="evenodd" clip-rule="evenodd" d="M332.18 172.128C331.64 171.19 330.398 170.321 329.26 170.454C324.166 171.051 324.175 177.228 326.142 180.834C327.886 184.031 331.496 185.908 335.109 185.634C338.904 185.346 342.138 183.114 343.562 179.564C344.503 177.215 344.938 172.879 342.434 171.301C342.387 171.271 342.311 171.279 342.274 171.321C341.073 172.718 341.026 174.815 339.975 176.369C338.998 177.816 337.479 179.01 335.7 179.194C334.371 179.332 333.027 178.853 332.507 177.66C332.226 177.015 332.258 176.665 332.364 176.221L332.46 175.835C332.793 174.483 332.942 173.454 332.18 172.128ZM330.818 145.04C328.161 146.655 324.113 150.421 326.971 154.425C330.336 157.956 335.18 153.908 337.567 152.077C339.781 150.658 342.268 154.307 340.214 155.964C322.964 168.735 315.964 145.462 329.474 143.141C330.962 142.885 331.514 144.541 330.818 145.04ZM358.877 133.965C357.246 131.519 353.523 131.879 352.625 134.782C352.138 136.355 352.81 137.769 352.776 139.34C352.746 140.667 352.833 142.145 353.24 143.43C354.168 146.361 356.803 148.43 359.921 148.344C363.029 148.259 365.766 146.292 367.067 143.522C368.373 140.741 368.097 137.863 367.143 135.035C367.098 134.9 366.92 134.834 366.812 134.948C365.685 136.146 364.86 137.41 364.006 138.752L363.131 140.127C362.463 141.162 361.491 142.484 360.242 142.401L360.055 142.383C359.708 142.353 359.761 142.422 359.493 141.949C359.37 141.73 359.392 141.323 359.332 141.065L359.312 140.978L359.323 140.931C359.349 140.806 359.375 140.57 359.397 140.161L359.401 140.071C359.492 138.158 360.033 135.699 358.877 133.965ZM317.536 135.594C317.828 132.465 313.428 131.77 311.966 134.086C311.203 135.293 310.981 136.81 310.812 138.247L310.733 138.929C310.56 140.405 310.491 141.941 311.132 143.318C312.141 145.486 314.336 146.633 316.703 146.451C318.964 146.277 321.027 144.967 322.114 142.977C323.083 141.201 324.047 137.735 322.87 135.883C322.799 135.771 322.656 135.756 322.559 135.843C321.446 136.83 321.265 138.632 320.604 139.919C319.921 141.246 318.887 142.539 317.318 142.741C315.818 142.934 315.245 142.114 315.628 140.684C316.121 138.837 317.35 137.581 317.536 135.594ZM357.689 115.36L356.969 115.084C354.504 114.153 351.119 113.077 349.115 115.081C347.879 116.317 347.643 118.138 348.526 119.647C349.595 121.474 351.513 121.519 353.365 121.788C355.472 122.094 357.614 122.676 359.576 123.506C361.785 124.441 363.835 125.606 365.844 126.908C367.753 128.145 369.656 130.166 371.941 130.547C372.034 130.563 372.14 130.522 372.165 130.42C372.684 128.186 371.241 125.987 369.954 124.244C368.397 122.133 366.51 120.401 364.401 118.848C362.365 117.349 360.039 116.265 357.689 115.36ZM312.908 123.304L312.688 123.265C311.193 123.016 309.838 123.074 308.712 124.258C307.852 125.161 307.52 126.332 307.93 127.526C308.308 128.628 309.154 129.747 310.382 129.978C314.527 130.757 319.117 130.629 323.283 130.038C325.189 129.768 327.111 129.437 328.968 128.916L329.822 128.668C331.371 128.226 333.146 127.763 334.271 126.623C334.676 126.214 334.443 125.628 333.958 125.438C331.994 124.669 329.302 125.078 327.208 125.018C324.772 124.948 322.331 124.765 319.907 124.514C317.537 124.268 315.244 123.732 312.908 123.304Z" fill="black"/>
</svg>
